PathFileType	4	(X/Y/Z)	..\data\2015035\dynamic\2015035_C5_03.trc
DataRate	CameraRate	NumFrames	NumMarkers	Units	OrigDataRate	OrigDataStartFrame	OrigNumFrames
100.000000	100.000000	4	52	mm	100.000000	120	161
Frame#	Time	L_IAS			L_IPS			R_IPS			R_IAS			L_FTC			L_FLE			L_FME			L_FAX			L_TTC			L_FAL			L_TAM			L_FCC			L_FM1			L_FM2			L_FM5			R_FTC			R_FLE			R_FME			R_FAX			R_TTC			R_FAL			R_TAM			R_FCC			R_FM1			R_FM2			R_FM5			CV7			TV10			SXS			SJN			L_SIA			L_SRS			L_SAA			L_SAE			L_HLE			L_HME			L_UOA			L_RSP			L_UHE			L_HM2			L_HM5			R_SIA			R_SRS			R_SAA			R_SAE			R_HLE			R_HME			R_UOA			R_RSP			R_UHE			R_HM2			R_HM5			
		X1	Y1	Z1	X2	Y2	Z2	X3	Y3	Z3	X4	Y4	Z4	X5	Y5	Z5	X6	Y6	Z6	X7	Y7	Z7	X8	Y8	Z8	X9	Y9	Z9	X10	Y10	Z10	X11	Y11	Z11	X12	Y12	Z12	X13	Y13	Z13	X14	Y14	Z14	X15	Y15	Z15	X16	Y16	Z16	X17	Y17	Z17	X18	Y18	Z18	X19	Y19	Z19	X20	Y20	Z20	X21	Y21	Z21	X22	Y22	Z22	X23	Y23	Z23	X24	Y24	Z24	X25	Y25	Z25	X26	Y26	Z26	X27	Y27	Z27	X28	Y28	Z28	X29	Y29	Z29	X30	Y30	Z30	X31	Y31	Z31	X32	Y32	Z32	X33	Y33	Z33	X34	Y34	Z34	X35	Y35	Z35	X36	Y36	Z36	X37	Y37	Z37	X38	Y38	Z38	X39	Y39	Z39	X40	Y40	Z40	X41	Y41	Z41	X42	Y42	Z42	X43	Y43	Z43	X44	Y44	Z44	X45	Y45	Z45	X46	Y46	Z46	X47	Y47	Z47	X48	Y48	Z48	X49	Y49	Z49	X50	Y50	Z50	X51	Y51	Z51	X52	Y52	Z52	

121	1.2	507.1979370117189	935.949157714844	147.3905487060548	317.8506774902344	963.1548461914065	245.5393829345704	324.6026306152344	960.0512695312502	331.2334594726564	514.7829589843751	949.8521728515627	412.7164611816408	410.1901245117189	863.5029296875002	100.9225540161134	399.1223144531251	442.0503540039064	86.73025512695318	431.2811279296876	427.833221435547	223.8881378173829	363.0593261718751	413.0186462402345	82.58557891845709	395.2904357910157	344.5381774902344	129.303680419922	64.88036346435547	227.495590209961	151.0226593017578	104.5810470581055	201.9861145019532	235.0243530273438	28.53979492187498	248.9217681884766	215.7410736083985	69.63113403320311	70.03530883789064	226.4988861083985	84.37554931640625	68.22155761718751	172.9326324462891	46.49256515502929	108.0036163330078	125.1238250732422	449.8035583496094	862.2233886718752	472.0050659179689	598.3228759765626	460.5976867675782	410.2018432617189	596.0853271484376	472.6661376953126	288.2796325683595	580.6004028320314	413.264617919922	409.6711730957033	643.3027343750001	401.6593627929689	357.7967529296876	538.4887084960939	55.28143310546876	373.2466430664064	579.7851562500001	77.88148498535158	286.1700439453126	502.5023498535157	16.48401260375977	326.8541564941407	697.5762329101564	16.02217674255371	296.196502685547	714.3852539062501	24.53053283691407	354.7153930664064	648.2619018554689	9.6868953704834	404.2459716796877	358.9950866699219	1472.476684570313	296.8951721191407	300.26318359375	1183.827880859375	288.0953674316407	551.9661865234376	1215.348022460938	279.5906677246095	500.2521667480469	1384.127685546875	291.3134155273439	298.1175842285157	1265.060791015625	165.6819763183594	317.7588195800782	1413.395751953125	199.6190185546876	397.9768371582032	1410.765625	101.8988800048829	446.4063415527345	1414.254028320313	98.79428100585946	468.8106079101564	1122.52099609375	-17.85788154602045	423.7043762207032	1078.89794921875	41.94462585449224	432.0293884277345	1066.958374023438	6.609376907348688	690.4721069335939	973.7266845703127	47.7437400817872	659.6654052734376	936.5139770507815	-12.61359882354729	768.675964355469	934.824645996094	48.80441284179698	705.3767089843751	871.3052978515627	-6.505812168121254	297.80419921875	1250.863525390625	414.5162353515627	331.2898559570312	1398.021606445313	392.871551513672	405.7382812500001	1380.543334960938	492.1663513183595	458.0196533203126	1373.3076171875	498.7769470214845	408.0848083496094	1072.146484375	561.5459594726564	354.0631408691406	1073.287963867188	486.025604248047	357.932373046875	1054.29150390625	546.1121215820314	477.5033874511719	809.0007934570315	509.0286254882814	430.4996948242188	809.190124511719	571.9320068359376	488.9425659179688	717.1654663085939	506.8435974121095	416.6426391601563	743.9125366210939	579.5950317382814	
122	1.21	521.6123046875001	938.9442138671877	148.0943298339845	332.5422058105469	965.9250488281252	246.4428863525391	339.242919921875	963.1195068359377	332.0915832519532	529.2340087890626	952.4576416015627	413.6812744140627	425.5135498046876	866.4348144531252	102.1157302856446	427.9507751464845	444.9762573242189	86.12892150878913	461.0269165039064	430.8218688964845	223.5507812500001	392.7326660156251	415.9144897460939	82.12067413330084	425.3470458984376	347.5953979492188	129.0731201171876	94.29764556884766	231.8741302490235	152.0849151611328	134.0485687255859	206.5812530517579	236.0100402832032	57.40626144409178	252.4509429931641	216.8082275390626	101.7590866088867	74.09168243408205	226.0547790527344	116.2582244873047	72.42951965332033	172.5948486328126	77.59513854980469	112.8048934936524	125.3131179809571	463.2807922363282	864.5279541015627	472.7121582031252	603.8625488281251	459.9873352050782	410.2879028320314	601.3214111328126	472.1908264160157	288.3348693847657	585.3467407226564	412.9751892089845	409.7742919921877	647.8959350585939	400.537322998047	358.0257568359376	538.6250610351564	55.51073837280275	373.2547302246095	580.0718994140626	78.09078216552736	286.1550292968751	502.3198852539063	16.80580139160157	327.0259094238282	697.5456542968751	16.68017578125	296.1418762207033	714.8591308593751	25.19794082641602	354.818817138672	648.3483886718751	10.21495628356934	404.4107666015627	373.7383422851562	1475.272583007813	297.6975402832032	314.9523010253906	1186.484497070313	289.0657653808595	566.3439941406251	1218.378662109375	279.4752502441407	514.3897705078126	1386.962280273438	291.4388427734376	312.2937927246094	1267.683715820313	167.0247039794922	331.4283142089844	1416.445922851563	201.134750366211	410.9650878906251	1413.718627929688	102.8045272827149	459.3716735839845	1417.174926757813	99.18455505371102	479.376434326172	1124.033325195313	-15.151044845581	435.8078002929689	1083.429565429688	47.76783752441413	440.6598205566407	1069.494995117188	10.05362319946295	695.1237182617189	965.365417480469	47.60170745849619	662.0583496093751	930.1787719726565	-12.82035255432121	771.6338500976565	922.7427978515627	47.83822250366221	704.4321289062501	862.7797851562502	-7.492597103118812	312.9938049316406	1253.6875	416.1020507812502	346.1669006347656	1400.705444335938	394.1700439453127	421.5472717285157	1382.876220703125	493.0542907714845	474.0514221191407	1375.943969726563	498.9619445800783	429.6158142089844	1074.384765625	562.4872436523439	375.0593566894531	1074.113037109375	487.2872619628908	379.666259765625	1055.515625	547.2055664062501	503.8698120117188	812.4199829101565	510.6715698242189	457.0722656250001	812.0219726562502	573.8444213867189	517.5341796875	721.0615844726564	509.2872009277345	444.6397399902344	746.4749145507814	582.0136108398439	
123	1.22	535.9954223632814	942.4191894531252	148.7225799560548	347.1864929199219	969.0435791015627	247.4155731201173	353.8756408691406	966.3494873046877	332.9994506835939	543.6161499023439	955.1340942382815	414.5542602539064	440.6331176757814	869.940856933594	103.157928466797	456.4799804687501	448.6562805175782	85.7518386840821	490.2474060058595	434.8445739746095	223.3612060546876	422.0561523437501	419.4329528808595	81.95522308349616	455.588836669922	351.4097900390626	128.999237060547	124.4630813598633	234.8290100097657	153.1091766357422	164.4537048339844	210.1945343017579	237.0088958740235	86.78454589843749	254.1723785400391	217.6875610351563	136.3322448730469	77.09971618652345	225.8630828857423	150.6336669921875	75.90056610107423	172.5865783691407	110.930892944336	116.0016632080078	125.6545562744141	476.7926635742188	866.8662719726565	473.2922973632814	608.7254028320314	459.4094543457032	410.1696166992189	605.4714355468751	471.5990295410157	288.1954040527345	589.3872070312501	412.686981201172	409.7279663085939	651.7466430664064	399.5047607421876	357.9921264648439	538.7651367187501	55.6837844848633	373.2686462402345	580.3465576171876	78.29098510742189	286.1619262695314	502.1530761718751	17.09430694580078	327.1671752929689	697.5120239257814	17.22370910644532	296.0734863281252	715.1763305664064	25.79319381713868	354.8372192382814	648.4451904296876	10.62992668151856	404.4866943359377	388.3951416015626	1478.1865234375	298.1915588378907	329.5303649902344	1189.303833007813	289.9707336425782	580.5751953125001	1221.67236328125	279.3793029785157	528.3092041015626	1390.03466796875	291.4740295410157	326.3274841308594	1270.404907226563	168.3064727783204	344.9465332031251	1419.599853515625	202.4906158447266	423.7725524902345	1416.849243164063	103.6108016967774	472.139617919922	1420.302001953125	99.45048522949227	489.8304748535157	1125.802490234375	-12.52647018432612	447.538055419922	1087.912231445313	53.12280654907234	449.2348937988282	1072.397094726563	13.41998672485357	698.9490356445314	957.1482543945315	47.32528686523447	663.6265258789064	924.2055664062502	-13.14803409576408	773.4810791015627	910.6998291015627	46.69156646728526	702.4780273437501	854.7113037109377	-8.636426925659096	327.8558959960938	1256.814453125	417.5395507812502	360.7277221679688	1403.649658203125	395.2987670898439	436.9511108398438	1385.554931640625	493.7850952148439	489.6438903808594	1378.985107421875	499.071014404297	450.9712524414063	1077.073364257813	563.2882080078126	396.0765991210938	1075.310668945313	488.2611389160158	401.2898864746094	1057.099853515625	548.0374145507814	530.5713500976562	816.4876098632815	512.2698974609377	483.8583068847657	815.4412841796877	575.6113891601565	546.6981201171875	725.6868286132814	511.8034057617189	472.9651794433594	749.6288452148439	584.2896728515627	
124	1.23	550.3933105468751	946.2864379882815	149.3140258789063	361.8053894042969	972.4275512695315	248.3967895507814	368.5179748535156	969.679870605469	333.9083251953126	557.9488525390626	957.8585205078127	415.3440246582033	455.6448974609376	873.9009399414065	104.0142211914063	484.6228332519532	452.9482421875001	85.58939361572273	518.9477539062501	439.7232666015626	223.2889556884767	450.9370727539064	423.4407348632814	82.05989837646491	485.9187011718751	355.8593444824219	129.0315093994141	155.2843017578125	236.2494812011719	154.0814819335938	195.7279357910157	212.6739959716797	237.9940948486329	116.6551742553711	254.0466613769532	218.3955383300782	173.0137634277344	78.97662353515626	225.9439086914063	187.1589050292969	78.48328399658205	172.9308624267579	146.2044830322266	117.5074996948242	126.1645736694336	490.3532409667969	869.2113037109377	473.7518615722658	613.0177001953126	458.904998779297	409.8728637695314	608.7204589843751	470.9694213867189	287.885955810547	592.8313598632814	412.4421997070314	409.5472412109377	654.9659423828126	398.5906677246095	357.7091369628907	538.9243774414064	55.82180023193361	373.271453857422	580.6200561523439	78.46715545654298	286.170623779297	502.0203857421876	17.36020851135254	327.2649536132814	697.4896850585939	17.58744430541993	295.9920654296877	715.3810424804689	26.22894477844239	354.7875976562502	648.5450439453126	10.90742111206055	404.4877319335939	402.9654541015626	1481.1630859375	298.416473388672	344.0247192382812	1192.219604492188	290.8319091796876	594.7008056640626	1225.1669921875	279.3421630859376	542.0518188476564	1393.2890625	291.4531250000001	340.2384338378907	1273.167602539063	169.537826538086	358.3516540527344	1422.788696289063	203.699920654297	436.4662170410157	1420.095581054688	104.3357849121095	484.7789611816407	1423.560546875	99.6239547729493	500.1582641601564	1127.777465820313	-10.02030658721918	458.9320373535157	1092.2080078125	57.87176132202156	457.7777709960939	1075.609619140625	16.65327644348151	701.9811401367189	949.1643676757815	46.92910385131845	664.4437866210939	918.663513183594	-13.59185314178459	774.2161254882815	898.8164062500002	45.41552352905283	699.5944213867189	847.1973876953127	-9.913004875183022	342.4434204101562	1260.160034179688	418.8739624023439	375.0013732910156	1406.784423828125	396.2720642089845	451.9635314941407	1388.528930664063	494.3802795410158	504.8053894042969	1382.3837890625	499.1382446289064	472.0902099609376	1080.163818359375	563.9675292968752	417.0820617675782	1076.86962890625	488.9525146484377	422.7545471191407	1059.001586914063	548.6203002929689	557.562744140625	821.2049560546877	513.8032836914065	510.7951354980469	819.4166259765627	577.1912841796877	576.3601684570312	731.0438232421876	514.338806152344	501.5546264648438	753.3552856445314	586.3609619140627	
